<svg width="63" height="27" viewBox="0 0 63 27" fill="none" xmlns="http://www.w3.org/2000/svg">
<path fill-rule="evenodd" clip-rule="evenodd" d="M23.4048 20.27C23.4048 20.9533 23.1467 21.6066 22.677 22.1089L22.602 22.0406L22.6833 22.1155C20.2132 24.7255 16.7211 26.2221 13.1018 26.2221C5.87762 26.2221 0 20.4261 0 13.3016C0 6.17674 5.87762 0.380371 13.1018 0.380371C16.5476 0.380371 19.8017 1.68899 22.2648 4.06515C22.6995 4.4914 23.207 5.27933 23.207 6.09971C23.207 7.59051 21.977 8.80325 20.4645 8.80325C19.8258 8.80325 19.21 8.58194 18.7195 8.18277L18.7179 8.18401C18.7138 8.17978 18.7104 8.17639 18.7062 8.17258C18.6942 8.163 18.6824 8.15393 18.6702 8.14456L18.6732 8.14034C17.2293 6.70402 15.1079 5.813 13.1195 5.813C8.94294 5.813 5.54398 9.16401 5.54398 13.2841C5.54398 17.4036 8.94294 20.7552 13.1195 20.7552C15.5017 20.7552 17.7761 19.3263 19.0008 18.1022L19.0505 18.1515L19.0037 18.0986C19.4616 17.7084 19.924 17.5569 20.6532 17.5569C22.1709 17.5569 23.4048 18.7738 23.4048 20.27ZM26.4387 13.3472C26.4387 20.4747 32.3174 26.2734 39.5448 26.2734C46.7711 26.2734 52.6514 20.4747 52.6514 13.3472C52.6514 6.22026 46.7711 0.421726 39.5448 0.421726C32.3174 0.421726 26.4387 6.22026 26.4387 13.3472ZM31.911 13.3286C31.911 9.18777 35.3266 5.81957 39.5248 5.81957C43.7239 5.81957 47.1396 9.18777 47.1396 13.3286C47.1396 17.4691 43.7239 20.8376 39.5248 20.8376C35.3266 20.8376 31.911 17.4691 31.911 13.3286ZM59.5679 26.3805H59.0787C57.7016 26.3805 56.5924 25.1565 56.5924 24.1435L56.575 2.6765C56.575 1.66941 57.7302 0.439164 59.0787 0.439164H59.5679C60.9445 0.439164 62.0528 1.66303 62.0528 2.6765L62.0711 24.1435C62.0711 25.1499 60.9159 26.3805 59.5679 26.3805Z" fill="white"/>
<mask id="mask0_51_20" style="mask-type:alpha" maskUnits="userSpaceOnUse" x="0" y="0" width="63" height="27">
<path fill-rule="evenodd" clip-rule="evenodd" d="M23.4048 20.27C23.4048 20.9533 23.1467 21.6066 22.677 22.1089L22.602 22.0406L22.6833 22.1155C20.2132 24.7255 16.7211 26.2221 13.1018 26.2221C5.87762 26.2221 0 20.4261 0 13.3016C0 6.17674 5.87762 0.380371 13.1018 0.380371C16.5476 0.380371 19.8017 1.68899 22.2648 4.06515C22.6995 4.4914 23.207 5.27933 23.207 6.09971C23.207 7.59051 21.977 8.80325 20.4645 8.80325C19.8258 8.80325 19.21 8.58194 18.7195 8.18277L18.7179 8.18401C18.7138 8.17978 18.7104 8.17639 18.7062 8.17258C18.6942 8.163 18.6824 8.15393 18.6702 8.14456L18.6732 8.14034C17.2293 6.70402 15.1079 5.813 13.1195 5.813C8.94294 5.813 5.54398 9.16401 5.54398 13.2841C5.54398 17.4036 8.94294 20.7552 13.1195 20.7552C15.5017 20.7552 17.7761 19.3263 19.0008 18.1022L19.0505 18.1515L19.0037 18.0986C19.4616 17.7084 19.924 17.5569 20.6532 17.5569C22.1709 17.5569 23.4048 18.7738 23.4048 20.27ZM26.4387 13.3472C26.4387 20.4747 32.3174 26.2734 39.5448 26.2734C46.7711 26.2734 52.6514 20.4747 52.6514 13.3472C52.6514 6.22026 46.7711 0.421726 39.5448 0.421726C32.3174 0.421726 26.4387 6.22026 26.4387 13.3472ZM31.911 13.3286C31.911 9.18777 35.3266 5.81957 39.5248 5.81957C43.7239 5.81957 47.1396 9.18777 47.1396 13.3286C47.1396 17.4691 43.7239 20.8376 39.5248 20.8376C35.3266 20.8376 31.911 17.4691 31.911 13.3286ZM59.5679 26.3805H59.0787C57.7016 26.3805 56.5924 25.1565 56.5924 24.1435L56.575 2.6765C56.575 1.66941 57.7302 0.439164 59.0787 0.439164H59.5679C60.9445 0.439164 62.0528 1.66303 62.0528 2.6765L62.0711 24.1435C62.0711 25.1499 60.9159 26.3805 59.5679 26.3805Z" fill="white"/>
</mask>
<g mask="url(#mask0_51_20)">
<rect x="-7.48132" y="69.5906" width="179.206" height="62.7635" transform="rotate(-54.8305 -7.48132 69.5906)" fill="white"/>
</g>
</svg>
